<?xml version="1.0" encoding="utf-8"?>
<!-- Generator: Adobe Illustrator 19.2.0, SVG Export Plug-In . SVG Version: 6.00 Build 0)  -->
<!DOCTYPE svg PUBLIC "-//W3C//DTD SVG 1.1//EN" "http://www.w3.org/Graphics/SVG/1.1/DTD/svg11.dtd">
<svg version="1.1" id="Layer_1" xmlns="http://www.w3.org/2000/svg" xmlns:xlink="http://www.w3.org/1999/xlink" x="0px" y="0px"
	 viewBox="0 0 330 259.6" style="enable-background:new 0 0 330 259.6;" xml:space="preserve">
<style type="text/css">
	.st0{fill-rule:evenodd;clip-rule:evenodd;fill:#FFFFFF;}
</style>
<g>
	<path class="st0" d="M177.8,92.6c-1.1,5.1-2.1,10.1-3.2,15.2c4.9-1.2,9.9-2.4,14.9-3.7c-5.6,4.4-11.3,8.8-16.9,13.1
		c-1.2,5.2-2.2,10.3-3.3,15.4c-2.4-2.4-4.8-4.8-7.2-7.2c-5.6,4.4-11.3,8.8-17,13.1c4.2-5.8,8.3-11.7,12.5-17.5
		c-2.4-2.4-4.8-4.8-7.2-7.2c5-1.2,9.9-2.4,14.9-3.6C169.4,104.2,173.6,98.4,177.8,92.6L177.8,92.6z"/>
	<path class="st0" d="M162.7,106c15.2-24.1,32.1-52,77.2-89c-34.4,27.4-81.8,58-109.4,82.4c-36,31.7-25.8,37.7-14,34.7l31.7-7.6
		l3.8-5.2l-10.2-10.1L162.7,106L162.7,106L162.7,106z"/>
	<path class="st0" d="M161.9,131.5c-13.5,20.6-31.6,44.2-67.2,73.5c34.4-27.4,81.8-58,109.4-82.4c36-31.7,25.8-37.8,14-34.7
		l-36.2,8.6l-0.7,1.4l-0.8,3.9l28.6-7.1l-32.4,25c-1.6,7.2-3.1,14.5-4.6,21.7l-8.1-8C163.3,132.8,162.6,132.1,161.9,131.5
		L161.9,131.5z"/>
	<path class="st0" d="M82.5,216.5c51.1-29.3,102.7-60.7,146.6-97.4c21.5-18.5,22.6-30.8,21.2-38.2c-1.5-8-9.5-11.2-19.6-8.6
		c-15.6,3.8-46.3,11.4-46.3,11.4l-1.1,5.3c3.8-0.9,30.1-7.2,41.3-9.9c16.4-3.9,25.3,9.3-4.8,36.6
		C178.7,152.7,132.8,179.2,82.5,216.5L82.5,216.5z"/>
	<path class="st0" d="M252,5.5c-51.1,29.3-102.8,60.6-146.6,97.4c-21.5,18.5-22.6,30.8-21.2,38.2c1.5,8,9.5,11.1,19.6,8.6
		c9.1-2.2,23.4-5.8,33.7-8.3l4.4-6.1c-9.7,2.3-24.4,5.8-32,7.7c-16.4,3.8-25.3-9.4,4.8-36.6C155.8,69.3,201.8,42.8,252,5.5L252,5.5z
		"/>
	<path class="st0" d="M20.5,248.3c1.4,0,3.1-0.2,4-0.5c0.4-0.2,0.4-0.2,0.5-0.6c0.3-0.8,0.5-2.7,0.5-2.9c0-0.2-0.1-0.4-0.2-0.4
		c-0.2,0-0.2,0.1-0.3,0.4c0,0.4-0.4,1.4-0.8,1.9c-0.9,0.9-2.1,1.1-3.8,1.1c-4.7,0-8-3.8-8-8c0-2.2,0.4-4.2,2-5.8
		c0.8-0.7,2.1-1.6,5.1-1.6c2,0,3.7,0.6,4.5,1.3c0.5,0.5,0.9,1.4,0.9,2.3c0,0.3,0,0.4,0.2,0.4c0.1,0,0.2-0.2,0.2-0.4
		c0-0.4,0-1.6,0.1-2.3c0-0.8,0.1-1.1,0.1-1.3c0-0.1,0-0.2-0.3-0.2c-0.7-0.1-1.4-0.2-2.2-0.4c-1.1-0.2-2.3-0.3-3.2-0.3
		c-3.4,0-5.5,1.1-6.7,2.3c-2,2-2.5,4.6-2.5,6.1c0,2.1,0.5,4.6,2.7,6.5C14.9,247.5,17.1,248.3,20.5,248.3L20.5,248.3z"/>
	<path class="st0" d="M29.4,239.6c0,3.9,2.5,8.7,8.6,8.7c5.3,0,8.8-4.1,8.8-9c0-5.2-3.7-8.3-8.7-8.3C32,230.9,29.4,236,29.4,239.6
		L29.4,239.6z M31.5,239c0-4.8,2.8-7.3,6.4-7.3c3.5,0,6.7,2.9,6.7,8.2c0,6.3-4.1,7.5-6.1,7.5C34.6,247.4,31.5,244.1,31.5,239
		L31.5,239z"/>
	<path class="st0" d="M68.1,231.5c0-0.4-0.1-0.6-0.3-0.6s-0.3,0.2-0.4,0.4l-6.4,13.9l-6.8-13.9c-0.1-0.3-0.2-0.4-0.3-0.4
		c-0.2,0-0.3,0.2-0.3,0.4l-1.6,14.4c-0.1,0.9-0.2,1.8-0.9,1.9c-0.4,0.1-0.4,0.1-0.6,0.1c-0.1,0-0.3,0-0.3,0.1c0,0.2,0.2,0.2,0.4,0.2
		c0.6,0,1.7,0,1.9,0c0.2,0,1.3,0,2.1,0c0.3,0,0.4,0,0.4-0.2c0-0.1-0.1-0.1-0.2-0.1c-0.2,0-0.5-0.1-0.9-0.1c-0.3-0.1-0.5-0.4-0.5-0.7
		c0-0.4,0-0.8,0-1.2l0.9-10.2h0.1c0.3,0.5,2.7,5.9,3,6.3c0.1,0.3,2,4,2.5,5.1c0.4,0.8,0.5,1.1,0.7,1.1c0.2,0,0.3-0.3,0.7-1.2
		l5.5-11.5h0.1l1,11.4c0.1,0.4,0.1,0.7-0.1,0.8c-0.1,0-0.1,0-0.1,0.1c0,0.1,0.1,0.2,0.6,0.3c0.8,0,3.1,0.1,3.7,0.1
		c0.3,0,0.4-0.1,0.4-0.2c0-0.1-0.1-0.1-0.2-0.1c-0.2,0-0.8,0-1.4-0.2c-1-0.4-1.1-1.6-1.2-2.4L68.1,231.5L68.1,231.5z"/>
	<path class="st0" d="M77.7,241.6c0,2.1,0,3.8-0.2,4.7c-0.1,0.6-0.2,1.2-0.6,1.3c-0.2,0-0.4,0.1-0.6,0.1c-0.2,0-0.2,0-0.2,0.1
		c0,0.2,0.1,0.2,0.4,0.2c0.6,0,2.1,0,2.1,0c0.1,0,1.4,0,2.7,0c0.3,0,0.4-0.1,0.4-0.2c0-0.1-0.1-0.1-0.2-0.1c-0.2,0-0.7-0.1-1-0.1
		c-0.7-0.1-0.8-0.6-0.9-1.3c-0.1-0.9-0.1-2.7-0.1-4.7v-9.1c0-0.2,0-0.4,0.2-0.4c0.2-0.1,0.5-0.1,1-0.1c0.4,0,1.8-0.1,3,1.1
		c1.3,1.3,1.3,2.7,1.3,3.4c0,2.1-1.7,3.7-3.8,3.7c-0.5,0-0.6,0-0.6,0.2c0,0.1,0.1,0.1,0.3,0.1c0.1,0.1,0.4,0.1,0.4,0.1
		c3.1,0,5.5-2.1,5.5-5.3c0-1.2-0.6-2.1-1.2-2.6c-0.4-0.4-1.3-1.3-4.1-1.3c-1,0-2.2,0.1-2.8,0.1c-0.2,0-1.5-0.1-2.5-0.1
		c-0.3,0-0.4,0.1-0.4,0.2c0,0.1,0.1,0.2,0.2,0.2c0.2,0,0.6,0,0.8,0.1c0.7,0.1,0.9,0.4,0.9,1.3c0.1,0.7,0.1,1.3,0.1,4.7V241.6
		L77.7,241.6z"/>
	<path class="st0" d="M91.8,240.8c0,3.2,0.9,4.8,2,5.8c1.5,1.5,3.8,1.6,4.6,1.6c1.3,0,3-0.3,4.6-1.7c1.7-1.5,2-4.2,2-6.5v-2.4
		c0-3.4,0-4,0.1-4.7c0-0.8,0.2-1.2,0.8-1.3c0.3-0.1,0.4-0.1,0.5-0.1c0.1,0,0.2-0.1,0.2-0.2c0-0.1-0.1-0.2-0.4-0.2
		c-0.6,0-1.7,0.1-1.8,0.1c-0.2,0-1.4-0.1-2.4-0.1c-0.2,0-0.4,0.1-0.4,0.2c0,0.1,0.1,0.2,0.2,0.2c0.3,0,0.6,0,0.8,0.1
		c0.7,0.1,0.9,0.4,0.9,1.3c0.1,0.7,0.1,1.3,0.1,4.7v2.8c0,2.2-0.3,4.1-1.3,5.4c-0.8,1-2.1,1.6-3.5,1.6c-1.3,0-2.2-0.2-3.4-1.2
		c-0.9-0.9-1.6-2.3-1.6-5.5v-3.1c0-3.4,0-4,0-4.7c0.1-0.8,0.3-1.2,0.9-1.3c0.3-0.1,0.4-0.1,0.5-0.1c0.1,0,0.2-0.1,0.2-0.2
		c0-0.1-0.2-0.2-0.4-0.2c-0.7,0-2,0.1-2.2,0.1c-0.2,0-1.5-0.1-2.5-0.1c-0.3,0-0.4,0.1-0.4,0.2c0,0.1,0.1,0.2,0.2,0.2
		c0.2,0,0.5,0,0.7,0.1c0.7,0.1,0.9,0.4,1,1.3c0,0.7,0,1.3,0,4.7V240.8L91.8,240.8z"/>
	<path class="st0" d="M117.5,232.2l2.8,0.1c2.1,0,2.6,0.5,2.7,1.2l0.1,0.3c0,0.3,0,0.4,0.2,0.4c0.1,0,0.1-0.1,0.1-0.3
		c0-0.3,0.1-1.8,0.1-2.4c0-0.2,0-0.3-0.1-0.3c-0.2,0-0.8,0.2-2.2,0.2h-8.2c-0.3,0-1.2,0-1.8-0.1c-0.5-0.1-0.8-0.3-1-0.3
		c-0.1,0-0.2,0.3-0.2,0.4c-0.1,0.2-0.5,2.1-0.5,2.2c0,0.2,0.1,0.3,0.2,0.3c0.1,0,0.1-0.1,0.2-0.3c0.1-0.2,0.2-0.3,0.4-0.7
		c0.4-0.4,0.9-0.6,2.3-0.6l3.2-0.1v9.4c0,2.1,0,3.8-0.1,4.7c-0.1,0.6-0.2,1.2-0.6,1.3c-0.2,0-0.4,0.1-0.7,0.1c-0.1,0-0.2,0-0.2,0.1
		c0,0.2,0.2,0.2,0.4,0.2c0.7,0,2.1,0,2.2,0c0.1,0,1.4,0,2.7,0c0.3,0,0.4-0.1,0.4-0.2c0-0.1-0.1-0.1-0.2-0.1c-0.2,0-0.7-0.1-1-0.1
		c-0.7-0.1-0.8-0.6-0.9-1.3c-0.1-0.9-0.1-2.7-0.1-4.7V232.2L117.5,232.2z"/>
	<path class="st0" d="M129.3,241.6c0,2.1,0,3.8-0.1,4.7c-0.1,0.6-0.2,1.2-0.6,1.3c-0.2,0-0.4,0.1-0.6,0.1c-0.2,0-0.2,0-0.2,0.1
		c0,0.2,0.1,0.2,0.4,0.2c0.6,0,2.1-0.1,2.1-0.1c0.6,0,2.1,0.2,5.5,0.2c0.8,0,1,0,1.2-0.5c0.1-0.5,0.3-2,0.3-2.1c0-0.2,0-0.4-0.1-0.4
		c-0.1,0-0.2,0.1-0.2,0.4c-0.2,0.9-0.4,1.3-1,1.5c-0.6,0.3-1.6,0.3-2.1,0.3c-2.1,0-2.5-0.3-2.6-1.8c0-0.4,0-3,0-3.8v-2
		c0-0.1,0.1-0.2,0.2-0.2c0.4,0,2.6,0.1,3.1,0.1c0.9,0.1,1.1,0.5,1.2,0.8c0.1,0.3,0.1,0.5,0.1,0.7c0,0.1,0.1,0.2,0.2,0.2
		c0.2,0,0.2-0.2,0.2-0.4c0-0.2,0-1,0.1-1.4c0-0.7,0.1-1.2,0.1-1.3c0-0.1,0-0.2-0.1-0.2c-0.1,0-0.2,0.1-0.3,0.3
		c-0.3,0.3-0.5,0.3-1.1,0.4c-0.5,0-3.2,0-3.5,0c-0.2,0-0.2-0.1-0.2-0.2v-6.1c0-0.2,0.1-0.3,0.2-0.3c0.2,0,2.6,0,3,0.1
		c1.3,0.1,1.4,0.4,1.6,0.7c0.1,0.3,0.2,0.6,0.2,0.8c0,0.2,0,0.3,0.1,0.3c0.1,0,0.2-0.1,0.2-0.2c0.1-0.3,0.1-1.3,0.1-1.5
		c0.1-0.6,0.2-0.9,0.2-1c0-0.2,0-0.3-0.1-0.3c-0.1,0-0.2,0.1-0.3,0.2c-0.2,0-0.5,0.1-1,0.1c-0.4,0-4.8,0-5,0c-0.1,0-1.5-0.1-2.5-0.1
		c-0.3,0-0.4,0.1-0.4,0.2c0,0.1,0.1,0.2,0.2,0.2c0.2,0,0.5,0,0.7,0.1c0.7,0.1,0.9,0.4,1,1.3c0,0.7,0,1.3,0,4.7V241.6L129.3,241.6z"
		/>
	<path class="st0" d="M144.1,241.6c0,2.1,0,3.8-0.2,4.7c-0.1,0.6-0.2,1.2-0.6,1.3c-0.2,0-0.4,0.1-0.6,0.1c-0.2,0-0.2,0-0.2,0.1
		c0,0.2,0.1,0.2,0.4,0.2c0.6,0,2.1,0,2.1,0c0.1,0,1.5,0,2.7,0c0.3,0,0.4-0.1,0.4-0.2c0-0.1,0-0.1-0.2-0.1c-0.2,0-0.6-0.1-1-0.1
		c-0.6-0.1-0.8-0.6-0.8-1.3c-0.2-0.9-0.2-2.7-0.2-4.7V241c0-0.2,0.1-0.2,0.2-0.2h2.7c0.2,0,0.3,0.1,0.4,0.2c0.4,0.5,1.4,2.1,2.4,3.2
		c1.3,1.7,2,2.8,3,3.3c0.5,0.3,1.2,0.4,2.3,0.4h1.6c0.4,0,0.5,0,0.5-0.2c0-0.1-0.1-0.1-0.2-0.1c-0.2,0-0.4,0-0.9-0.1
		c-0.5-0.1-1.5-0.4-2.7-1.6c-1.3-1.3-2.8-3.3-4.6-5.6c2.1-1.9,2.7-3.5,2.7-5.1c0-1.5-1-2.6-1.5-3c-1.2-0.8-2.6-1-4-1
		c-0.7,0-2.3,0.1-2.6,0.1c-0.1,0-1.5-0.1-2.5-0.1c-0.3,0-0.4,0.1-0.4,0.2c0,0.1,0.1,0.2,0.2,0.2c0.2,0,0.5,0,0.7,0.1
		c0.8,0.1,1,0.4,1,1.3c0.1,0.7,0.1,1.3,0.1,4.7V241.6L144.1,241.6z M145.8,232.4c0-0.2,0.1-0.3,0.2-0.3c0.3-0.1,0.8-0.2,1.5-0.2
		c2.3,0,3.8,1.7,3.8,4.5c0,1.7-0.6,2.9-1.3,3.4c-0.5,0.4-1.2,0.4-1.7,0.4c-1,0-2-0.1-2.3-0.3c-0.1-0.1-0.2-0.2-0.2-0.3V232.4
		L145.8,232.4z"/>
	<path class="st0" d="M176.7,248.3c1.2,0,2.3-0.3,3.3-1c1.5-1.1,1.9-2.8,1.9-3.7c0-1.7-0.6-3.1-3.2-5.2L178,238
		c-2.1-1.7-2.7-2.5-2.7-3.8c0-1.6,1.2-2.5,2.7-2.5c2.1,0,2.7,0.9,2.8,1.2c0.2,0.2,0.3,0.8,0.3,1.1c0.1,0.2,0.1,0.3,0.2,0.3
		c0.2,0,0.2-0.1,0.2-0.4c0-1.5,0.1-2.2,0.1-2.4c0-0.1,0-0.1-0.2-0.1c-0.2,0-0.4-0.1-0.8-0.2c-0.5-0.1-1.2-0.2-2.1-0.2
		c-2.8,0-4.6,1.6-4.6,3.9c0,1.5,0.5,3,2.9,4.8l1,0.8c1.9,1.6,2.5,2.5,2.5,4c0,1.3-1,3-3.1,3c-1.4,0-3-0.6-3.2-2.3
		c-0.1-0.3-0.1-0.6-0.1-0.8c0-0.2,0-0.3-0.2-0.3c-0.1,0-0.2,0.2-0.2,0.4c0,0.4-0.1,1.3-0.1,2.4c0,0.5,0,0.6,0.4,0.8
		C174.6,248.1,175.6,248.3,176.7,248.3L176.7,248.3z"/>
	<path class="st0" d="M186.5,239.6c0,3.9,2.5,8.7,8.5,8.7c5.4,0,8.9-4.1,8.9-9c0-5.2-3.8-8.3-8.7-8.3
		C189.1,230.9,186.4,236,186.5,239.6L186.5,239.6z M188.6,239c0-4.8,2.8-7.3,6.4-7.3c3.5,0,6.7,2.9,6.7,8.2c0,6.3-4.1,7.5-6.1,7.5
		C191.7,247.4,188.6,244.1,188.6,239L188.6,239z"/>
	<path class="st0" d="M211.6,237.6c0-3.4,0-4,0.1-4.7c0-0.8,0.2-1.2,0.9-1.3c0.3-0.1,0.5-0.1,0.7-0.1c0.1,0,0.2-0.1,0.2-0.2
		c0-0.1-0.1-0.2-0.4-0.2c-0.7,0-2.3,0.1-2.4,0.1c-0.1,0-1.5-0.1-2.5-0.1c-0.3,0-0.4,0.1-0.4,0.2c0,0.1,0.1,0.2,0.2,0.2
		c0.2,0,0.6,0,0.8,0.1c0.7,0.1,0.9,0.4,0.9,1.3c0.1,0.7,0.1,1.3,0.1,4.7v3.9c0,2.1,0,3.8-0.1,4.7c-0.1,0.6-0.3,1.2-0.7,1.3
		c-0.2,0-0.4,0.1-0.6,0.1s-0.2,0-0.2,0.1c0,0.2,0.1,0.2,0.4,0.2c0.6,0,2-0.1,2.1-0.1c1.3,0,2.8,0.2,5.9,0.2c1.2,0,1.3-0.1,1.4-0.6
		c0.2-0.6,0.4-2,0.4-2.1c0-0.3-0.1-0.4-0.2-0.4c-0.1,0-0.2,0.1-0.2,0.3c-0.1,0.4-0.3,1-0.6,1.3c-0.4,0.6-1.4,0.6-2.6,0.6
		c-1.8,0-2.3-0.1-2.7-0.4c-0.4-0.4-0.5-1.9-0.5-5.1V237.6L211.6,237.6z"/>
	<path class="st0" d="M222.8,240.8c0,3.2,0.8,4.8,1.9,5.8c1.6,1.5,3.8,1.6,4.6,1.6c1.3,0,3-0.3,4.6-1.7c1.8-1.5,2.1-4.2,2.1-6.5
		v-2.4c0-3.4,0-4,0-4.7c0.1-0.8,0.3-1.2,0.8-1.3c0.3-0.1,0.4-0.1,0.5-0.1c0.1,0,0.2-0.1,0.2-0.2c0-0.1-0.1-0.2-0.4-0.2
		c-0.6,0-1.7,0.1-1.8,0.1c-0.2,0-1.3-0.1-2.3-0.1c-0.3,0-0.4,0.1-0.4,0.2c0,0.1,0.1,0.2,0.2,0.2c0.2,0,0.5,0,0.7,0.1
		c0.7,0.1,0.9,0.4,1,1.3c0,0.7,0,1.3,0,4.7v2.8c0,2.2-0.3,4.1-1.3,5.4c-0.8,1-2.1,1.6-3.5,1.6c-1.3,0-2.2-0.2-3.3-1.2
		c-1-0.9-1.7-2.3-1.7-5.5v-3.1c0-3.4,0-4,0.1-4.7c0-0.8,0.2-1.2,0.8-1.3c0.3-0.1,0.4-0.1,0.5-0.1c0.1,0,0.2-0.1,0.2-0.2
		c0-0.1-0.1-0.2-0.4-0.2c-0.6,0-2,0.1-2.1,0.1c-0.3,0-1.6-0.1-2.6-0.1c-0.3,0-0.4,0.1-0.4,0.2c0,0.1,0.1,0.2,0.2,0.2
		c0.2,0,0.6,0,0.8,0.1c0.7,0.1,0.9,0.4,0.9,1.3c0.1,0.7,0.1,1.3,0.1,4.7V240.8L222.8,240.8z"/>
	<path class="st0" d="M248.4,232.2l2.8,0.1c2.1,0,2.7,0.5,2.8,1.2v0.3c0,0.3,0.1,0.4,0.2,0.4c0.1,0,0.2-0.1,0.2-0.3
		c0-0.3,0-1.8,0-2.4c0-0.2,0-0.3-0.1-0.3c-0.2,0-0.8,0.2-2.1,0.2h-8.3c-0.3,0-1.1,0-1.8-0.1c-0.5-0.1-0.8-0.3-0.9-0.3
		c-0.1,0-0.2,0.3-0.3,0.4c0,0.2-0.4,2.1-0.4,2.2c0,0.2,0,0.3,0.1,0.3c0.1,0,0.2-0.1,0.2-0.3c0.1-0.2,0.2-0.3,0.4-0.7
		c0.4-0.4,0.8-0.6,2.2-0.6l3.2-0.1v9.4c0,2.1,0,3.8-0.1,4.7c-0.1,0.6-0.2,1.2-0.6,1.3c-0.2,0-0.4,0.1-0.6,0.1c-0.2,0-0.2,0-0.2,0.1
		c0,0.2,0.1,0.2,0.3,0.2c0.7,0,2.1,0,2.2,0c0.1,0,1.4,0,2.7,0c0.3,0,0.4-0.1,0.4-0.2c0-0.1,0-0.1-0.2-0.1s-0.7-0.1-1-0.1
		c-0.6-0.1-0.8-0.6-0.9-1.3c-0.1-0.9-0.1-2.7-0.1-4.7V232.2L248.4,232.2z"/>
	<path class="st0" d="M262.1,237.6c0-3.4,0-4,0.1-4.7c0-0.8,0.2-1.2,0.8-1.3c0.3-0.1,0.4-0.1,0.5-0.1c0.1,0,0.2-0.1,0.2-0.2
		c0-0.1-0.1-0.2-0.4-0.2c-0.6,0-2.1,0.1-2.1,0.1c-0.1,0-1.5-0.1-2.2-0.1c-0.3,0-0.4,0.1-0.4,0.2c0,0.1,0.1,0.2,0.2,0.2
		c0.2,0,0.4,0,0.7,0.1c0.4,0.1,0.7,0.4,0.7,1.3c0.1,0.7,0.1,1.3,0.1,4.7v3.9c0,2.1,0,3.8-0.2,4.7c-0.1,0.6-0.2,1.2-0.6,1.3
		c-0.2,0-0.4,0.1-0.6,0.1c-0.2,0-0.2,0-0.2,0.1c0,0.2,0.1,0.2,0.4,0.2c0.6,0,2.1,0,2.1,0c0.1,0,1.5,0,2.7,0c0.3,0,0.4-0.1,0.4-0.2
		c0-0.1,0-0.1-0.2-0.1c-0.2,0-0.6-0.1-1-0.1c-0.6-0.1-0.8-0.6-0.8-1.3c-0.2-0.9-0.2-2.7-0.2-4.7V237.6L262.1,237.6z"/>
	<path class="st0" d="M268.1,239.6c0,3.9,2.6,8.7,8.6,8.7c5.4,0,8.9-4.1,8.9-9c0-5.2-3.8-8.3-8.7-8.3
		C270.8,230.9,268.1,236,268.1,239.6L268.1,239.6z M270.3,239c0-4.8,2.8-7.3,6.4-7.3c3.5,0,6.7,2.9,6.7,8.2c0,6.3-4.1,7.5-6.1,7.5
		C273.3,247.4,270.3,244.1,270.3,239L270.3,239z"/>
	<path class="st0" d="M292.4,234.3c0.7,0.8,3.2,3.6,5.8,6.3c2.3,2.5,5.5,5.8,5.7,6c1.2,1.2,1.4,1.4,1.6,1.4c0.2,0,0.2-0.1,0.2-1.6
		l0.1-12.9c0-1.3,0.1-1.9,0.8-2c0.3-0.1,0.4-0.1,0.5-0.1c0.2,0,0.3-0.1,0.3-0.2c0-0.1-0.2-0.2-0.4-0.2c-0.9,0-1.6,0.1-1.9,0.1
		c-0.2,0-1.3-0.1-2.2-0.1c-0.3,0-0.4,0.1-0.4,0.2c0,0.1,0,0.2,0.2,0.2c0.2,0,0.6,0,1.1,0.1c0.6,0.2,0.8,0.7,0.8,2.1l0.3,11.2
		c-0.7-0.7-3.1-3.4-5.3-5.7c-3.4-3.7-6.7-7.2-7.1-7.6c-0.2-0.3-0.5-0.7-0.7-0.7c-0.2,0-0.3,0.3-0.3,1.1v12.7c0,2-0.2,2.7-0.7,2.8
		c-0.3,0.1-0.7,0.2-0.9,0.2c-0.1,0-0.2,0-0.2,0.1c0,0.2,0.2,0.2,0.4,0.2c1,0,2,0,2.1,0c0.2,0,1.1,0,2.3,0c0.3,0,0.4,0,0.4-0.2
		c0-0.1,0-0.1-0.2-0.1c-0.2,0-0.6-0.1-1.1-0.2c-0.6-0.2-0.8-0.7-0.9-2.5L292.4,234.3L292.4,234.3z"/>
	<path class="st0" d="M315.9,248.3c1.2,0,2.3-0.3,3.3-1c1.5-1.1,1.9-2.8,1.9-3.7c0-1.7-0.6-3.1-3.2-5.2l-0.6-0.4
		c-2.1-1.7-2.7-2.5-2.7-3.8c0-1.6,1.2-2.5,2.7-2.5c2.1,0,2.6,0.9,2.8,1.2c0.1,0.2,0.3,0.8,0.3,1.1c0,0.2,0.1,0.3,0.2,0.3
		c0.1,0,0.2-0.1,0.2-0.4c0-1.5,0.1-2.2,0.1-2.4c0-0.1-0.1-0.1-0.3-0.1c-0.2,0-0.4-0.1-0.7-0.2c-0.5-0.1-1.3-0.2-2.1-0.2
		c-2.9,0-4.6,1.6-4.6,3.9c0,1.5,0.5,3,2.9,4.8l1,0.8c1.9,1.6,2.5,2.5,2.5,4c0,1.3-1,3-3.1,3c-1.5,0-3-0.6-3.3-2.3c0-0.3,0-0.6,0-0.8
		c0-0.2-0.1-0.3-0.2-0.3c-0.1,0-0.2,0.2-0.2,0.4c0,0.4-0.1,1.3-0.1,2.4c0,0.5,0,0.6,0.3,0.8C313.8,248.1,314.8,248.3,315.9,248.3
		L315.9,248.3z"/>
	<path class="st0" d="M10.9,212.1h22.9c0.2,1.1,1,2,2.4,2.6c1.5,0.5,3.5,0.9,6,0.9c2.6,0,4.5-0.3,5.7-0.8c1.3-0.4,1.9-1.2,1.9-2.1
		c0-0.9-0.5-1.6-1.6-2.1c-1.1-0.5-2.8-0.9-5.1-1.2l-14-1.4c-5.8-0.6-10.2-2-13.1-4c-3-2.1-4.5-4.8-4.5-8.3c0-4.6,2.2-8,6.7-10.1
		c4.5-2.1,11.6-3.1,21.4-3.1c10.1,0,17.6,1.1,22.5,3.1c4.9,2.1,7.6,5.5,8,9.9H48.2c-0.3-1.3-1.2-2.2-2.8-3c-1.6-0.6-3.8-1-6.8-1
		c-2.1,0-3.8,0.3-4.9,0.7c-1.3,0.5-1.8,1.2-1.8,2.1c0,0.7,0.4,1.3,1.3,1.8c1,0.4,2.9,0.8,5.8,1.1l17.2,2.1c5.4,0.7,9.4,2.1,12.1,4
		c2.6,2,3.9,4.7,3.9,8c0,5.1-2.6,8.8-8,11.2c-5.3,2.3-13.7,3.6-25,3.6c-9.1,0-16.1-1.3-20.9-3.6C13.5,219.9,11,216.5,10.9,212.1
		L10.9,212.1z M77.1,224.6v-1.4l14.5-8.5c1.4-0.8,3-1.7,4.4-2.5v12.4H77.1L77.1,224.6z M77.1,215.2v-31.8H96v16.9
		c-2.2,1.9-4.4,3.7-6.4,5.4C85.4,208.9,81.3,212.1,77.1,215.2L77.1,215.2z M144.7,183.4c2.2,0.1,4.1,0.2,5.6,0.4
		c2.6,0.3,4.6,0.8,6,1.6c1.8,0.9,3.2,2.1,4.1,3.7c1,1.5,1.4,3.3,1.4,5.3c0,2.4-0.7,4.6-2.1,6.4c-1.4,1.9-3.4,3.2-5.9,4
		c2.1,0.7,3.7,1.7,4.5,2.8c0.9,1.2,1.4,3.1,1.5,6c0.1,0.4,0.1,0.8,0.1,1.3c0.3,5.4,1.2,8.4,2.6,8.9v0.6h-20.9c-0.7-0.8-1-2.5-1.1-5
		c-0.1-1.5-0.2-2.6-0.3-3.4c-0.2-1.5-0.8-2.6-1.8-3.2c-1-0.6-2.7-0.9-5-0.9h-11.3v12.5h-19v-16.6c6.3-3.7,12.7-7.3,19-11.1v4.3h11
		c2.9,0,4.9-0.3,6.1-0.8c1.2-0.6,1.8-1.6,1.8-3c0-1.3-0.5-2.2-1.7-2.8c-1.1-0.5-3.3-0.8-6.6-0.8h-5.4
		C133.3,190.4,139,186.9,144.7,183.4L144.7,183.4z M103.3,194v-10.6h11.3C110.9,187,107,190.6,103.3,194L103.3,194z M169.3,224.6
		v-41.2h18.8v41.2H169.3L169.3,224.6z M215.6,183.4v20.2c0,4.1,0.7,7,2.2,8.6c1.4,1.6,4,2.4,7.6,2.4c3.7,0,6.3-0.8,7.7-2.4
		c1.4-1.6,2.1-4.5,2.1-8.6v-20.2h18.9V205c0,7.2-2.2,12.4-6.9,15.7c-4.6,3.4-11.8,5-21.8,5c-9.8,0-17.1-1.7-21.7-5
		c-4.6-3.3-7-8.6-7-15.7v-21.6H215.6L215.6,183.4z M260.5,212.1h22.8c0.2,1.1,1,2,2.4,2.6c1.5,0.5,3.5,0.9,6.1,0.9
		c2.5,0,4.4-0.3,5.6-0.8c1.3-0.4,2-1.2,2-2.1c0-0.9-0.6-1.6-1.7-2.1s-2.8-0.9-5.1-1.2l-14-1.4c-5.8-0.6-10.2-2-13.1-4
		c-3-2.1-4.5-4.8-4.5-8.3c0-4.6,2.2-8,6.7-10.1c4.5-2.1,11.6-3.1,21.4-3.1c10.1,0,17.6,1.1,22.5,3.1c5,2.1,7.6,5.5,8,9.9h-21.9
		c-0.3-1.3-1.2-2.2-2.8-3c-1.6-0.6-3.8-1-6.7-1c-2.1,0-3.8,0.3-5,0.7c-1.3,0.5-1.8,1.2-1.8,2.1c0,0.7,0.4,1.3,1.3,1.8
		c1,0.4,2.9,0.8,5.8,1.1l17.2,2.1c5.4,0.7,9.4,2.1,12.1,4c2.6,2,3.9,4.7,3.9,8c0,5.1-2.6,8.8-8,11.2c-5.3,2.3-13.7,3.6-25,3.6
		c-9.1,0-16.1-1.3-20.9-3.6C263,219.9,260.5,216.5,260.5,212.1L260.5,212.1z"/>
</g>
</svg>
